<?xml version="1.0" encoding="utf-8"?>
<!-- Generator: Adobe Illustrator 25.2.0, SVG Export Plug-In . SVG Version: 6.00 Build 0)  -->
<svg version="1.1" id="_x35_" xmlns="http://www.w3.org/2000/svg" xmlns:xlink="http://www.w3.org/1999/xlink" x="0px" y="0px"
	 viewBox="0 0 800 800" style="enable-background:new 0 0 800 800;" xml:space="preserve">
<style type="text/css">
	.st0{fill:#EFB832;}
	.st1{opacity:0.5;}
	.st2{fill:#AE8132;}
	.st3{display:none;}
	.st4{display:inline;fill:#EFB832;}
	.st5{fill:#B58F54;}
	.st6{opacity:6.000000e-02;fill:#040000;enable-background:new    ;}
</style>
<g>
	<g>
		<path class="st0" d="M400,800C179.4,800,0,620.6,0,400S179.4,0,400,0s400,179.4,400,400S620.6,800,400,800z"/>
		<g class="st1">
			<path class="st2" d="M400,738.5C213.4,738.5,61.5,586.6,61.5,400S213.4,61.5,400,61.5c186.6,0,338.5,151.8,338.5,338.5
				S586.6,738.5,400,738.5z M400,147.8c-139.1,0-252.2,113.1-252.2,252.2S260.9,652.2,400,652.2S652.2,539.1,652.2,400
				S539.1,147.8,400,147.8z"/>
		</g>
		<g class="st3">
			<path class="st4" d="M287.5,128.5c0.7,1.8,1.3,3.5,1.9,5c0.5,1.5,0.9,2.9,1.1,4.2c0.2,1.3,0.3,2.6,0.2,3.8
				c-0.1,1.2-0.5,2.5-1,3.9c-0.8,1.8-1.8,3.3-3.2,4.7c-1.4,1.3-3.2,2.4-5.4,3.3c-2.2,0.9-4.3,1.3-6.2,1.2c-1.9,0-3.8-0.4-5.6-1.2
				c-1.3-0.6-2.5-1.3-3.4-2.1c-0.9-0.8-1.7-1.8-2.5-3c-0.7-1.1-1.4-2.4-2-3.9c-0.6-1.4-1.3-3.1-2-4.9c-0.7-1.8-1.3-3.5-1.8-4.9
				c-0.5-1.5-0.9-2.9-1.2-4.2c-0.3-1.3-0.3-2.6-0.2-3.8c0.1-1.2,0.5-2.5,1-3.9c0.8-1.8,1.9-3.4,3.2-4.7c1.4-1.3,3.2-2.4,5.4-3.3
				c2.2-0.9,4.3-1.3,6.2-1.2c1.9,0,3.8,0.5,5.5,1.2c1.3,0.6,2.5,1.3,3.4,2.1c0.9,0.8,1.7,1.8,2.5,2.9c0.7,1.1,1.4,2.4,2,3.9
				C286.1,125.1,286.8,126.7,287.5,128.5z M280.1,131.5c-0.7-1.8-1.3-3.3-1.9-4.5c-0.5-1.2-1-2.1-1.5-2.8s-0.9-1.3-1.3-1.7
				c-0.4-0.4-0.9-0.7-1.4-1c-0.8-0.4-1.6-0.6-2.6-0.7c-0.9-0.1-1.9,0.1-3,0.5c-1,0.4-1.9,1-2.5,1.6c-0.7,0.7-1.1,1.4-1.5,2.3
				c-0.2,0.5-0.3,1.1-0.4,1.7c0,0.6,0,1.3,0.2,2.1c0.2,0.8,0.5,1.9,0.9,3.1c0.4,1.2,1,2.7,1.7,4.6c0.7,1.8,1.3,3.3,1.9,4.5
				c0.5,1.2,1,2.1,1.5,2.8c0.4,0.7,0.9,1.3,1.3,1.6c0.4,0.4,0.9,0.7,1.4,1c0.8,0.4,1.7,0.6,2.6,0.7c1,0.1,1.9-0.1,3-0.5
				c1-0.4,1.9-1,2.5-1.7c0.6-0.7,1.1-1.5,1.4-2.3c0.2-0.5,0.3-1.1,0.4-1.7c0-0.6,0-1.3-0.2-2.1c-0.2-0.8-0.4-1.8-0.8-3.1
				C281.3,134.8,280.8,133.3,280.1,131.5z"/>
			<path class="st4" d="M325.1,139.1l-22.3-19.9l6.7,24.2l-7.7,2.1l-10.9-39.4l6.9-1.9l22.3,19.8l-6.7-24.1l7.7-2.1l10.9,39.4
				L325.1,139.1z"/>
			<path class="st4" d="M340.2,135.9l-5.9-40.5l26.7-3.9l1,7l-18.8,2.7l1.4,9.5l16-2.3l1,7l-16,2.3l1.4,9.8l18.8-2.7l1,7
				L340.2,135.9z"/>
			<path class="st4" d="M415.8,102.7c0,1.7-0.3,3.4-0.9,4.9c-0.6,1.6-1.5,2.9-2.7,4.1c-1.2,1.2-2.6,2.1-4.3,2.7
				c-1.7,0.7-3.6,1-5.7,1l-7.9,0l-0.1,15.4l-8,0l0.2-40.9l15.9,0.1c2.1,0,4,0.3,5.7,1c1.7,0.7,3.1,1.6,4.2,2.8
				c1.1,1.2,2,2.5,2.6,4.1C415.6,99.3,415.9,100.9,415.8,102.7z M407.9,102.6c0-1.7-0.5-3-1.6-4.1c-1-1-2.5-1.6-4.3-1.6l-7.5,0
				l0,11.2l7.5,0c1.8,0,3.3-0.5,4.3-1.5C407.3,105.7,407.9,104.3,407.9,102.6z"/>
			<path class="st4" d="M421.4,131.3l4.6-40.6l26.8,3l-0.8,7.1l-18.8-2.1l-1.1,9.5l16,1.8l-0.8,7.1l-16-1.8l-1.1,9.9l18.8,2.1
				l-0.8,7.1L421.4,131.3z"/>
			<path class="st4" d="M478.3,140.9l-10.1-28.1l-5.7,24.5l-7.8-1.8l9.2-39.8l6.9,1.6l10.1,28.1l5.6-24.4l7.8,1.8l-9.2,39.8
				L478.3,140.9z"/>
			<path class="st4" d="M516,153.2l-6.6-29.1l-8.6,23.6l-7.5-2.8l14.1-38.4l6.7,2.5l6.6,29.1l8.6-23.5l7.5,2.8l-14.1,38.4L516,153.2
				z"/>
			<path class="st4" d="M551.8,151.2l-7.5,15l-7.1-3.5l7.5-15l-0.2-27.1l7.8,3.9l-0.5,18.2l14.1-11.4l7.8,3.9L551.8,151.2z"/>
		</g>
		<g class="st3">
			<path class="st4" d="M517.5,676c-0.7-1.8-1.3-3.5-1.9-5c-0.5-1.5-0.9-2.9-1.1-4.2c-0.2-1.3-0.3-2.6-0.2-3.8
				c0.1-1.2,0.5-2.5,1-3.9c0.8-1.8,1.8-3.4,3.2-4.7c1.4-1.3,3.2-2.4,5.4-3.3c2.2-0.9,4.3-1.3,6.2-1.2c1.9,0,3.8,0.4,5.6,1.2
				c1.3,0.6,2.5,1.3,3.4,2.1c0.9,0.8,1.7,1.8,2.5,3c0.7,1.1,1.4,2.4,2,3.9c0.6,1.4,1.3,3.1,2,4.9c0.7,1.8,1.3,3.5,1.8,4.9
				c0.5,1.5,0.9,2.9,1.2,4.2c0.2,1.3,0.3,2.6,0.2,3.8c-0.1,1.2-0.5,2.5-1,3.9c-0.8,1.8-1.9,3.4-3.2,4.7c-1.4,1.3-3.2,2.5-5.4,3.3
				c-2.2,0.9-4.3,1.3-6.2,1.2c-1.9,0-3.8-0.5-5.5-1.2c-1.3-0.6-2.5-1.3-3.4-2.1c-0.9-0.8-1.7-1.8-2.5-2.9c-0.7-1.1-1.4-2.4-2-3.9
				C518.9,679.5,518.2,677.8,517.5,676z M524.9,673.1c0.7,1.8,1.3,3.3,1.9,4.5c0.5,1.2,1,2.1,1.5,2.8c0.5,0.7,0.9,1.3,1.3,1.7
				c0.4,0.4,0.9,0.7,1.4,1c0.8,0.4,1.6,0.6,2.6,0.7c0.9,0.1,1.9-0.1,3-0.5c1-0.4,1.9-1,2.5-1.6c0.7-0.7,1.2-1.4,1.5-2.3
				c0.2-0.5,0.3-1.1,0.4-1.7c0-0.6,0-1.3-0.2-2.1c-0.2-0.8-0.5-1.9-0.9-3.1c-0.4-1.2-1-2.7-1.7-4.5c-0.7-1.8-1.3-3.3-1.9-4.5
				c-0.5-1.2-1-2.1-1.5-2.8c-0.4-0.7-0.9-1.3-1.3-1.6c-0.4-0.4-0.9-0.7-1.4-1c-0.8-0.4-1.7-0.6-2.6-0.7c-1-0.1-1.9,0.1-3,0.5
				c-1,0.4-1.9,1-2.5,1.7c-0.6,0.7-1.1,1.5-1.4,2.3c-0.2,0.5-0.3,1.1-0.4,1.7c0,0.6,0,1.3,0.2,2.1c0.2,0.8,0.4,1.8,0.8,3.1
				C523.7,669.7,524.2,671.3,524.9,673.1z"/>
			<path class="st4" d="M479.9,665.5l22.3,19.9l-6.7-24.2l7.7-2.1l10.9,39.4l-6.9,1.9l-22.3-19.8l6.7,24.1l-7.7,2.1L473,667.4
				L479.9,665.5z"/>
			<path class="st4" d="M464.8,668.7l5.9,40.5L444,713l-1-7l18.8-2.7l-1.4-9.5l-16,2.3l-1-7l16-2.3l-1.4-9.8l-18.8,2.7l-1-7
				L464.8,668.7z"/>
			<path class="st4" d="M389.2,701.9c0-1.7,0.3-3.4,0.9-4.9c0.6-1.6,1.5-2.9,2.7-4.1c1.2-1.2,2.6-2.1,4.3-2.7c1.7-0.7,3.6-1,5.7-1
				l7.9,0l0.1-15.4l8,0l-0.2,40.9l-15.9-0.1c-2.1,0-4-0.3-5.7-1c-1.7-0.7-3.1-1.6-4.2-2.8c-1.1-1.2-2-2.5-2.6-4.1
				C389.5,705.2,389.2,703.6,389.2,701.9z M397.1,701.9c0,1.7,0.5,3,1.6,4.1c1,1,2.5,1.6,4.3,1.6l7.5,0l0-11.2l-7.5,0
				c-1.8,0-3.3,0.5-4.3,1.5C397.7,698.9,397.1,700.2,397.1,701.9z"/>
			<path class="st4" d="M383.6,673.2l-4.6,40.6l-26.8-3l0.8-7.1l18.8,2.1l1.1-9.5l-16-1.8l0.8-7.1l16,1.8l1.1-9.9l-18.8-2.1l0.8-7.1
				L383.6,673.2z"/>
			<path class="st4" d="M326.7,663.7l10.1,28.1l5.7-24.5l7.8,1.8L341,709l-6.9-1.6L324,679.3l-5.6,24.4l-7.8-1.8l9.2-39.8
				L326.7,663.7z"/>
			<path class="st4" d="M289,651.4l6.6,29.1l8.6-23.6l7.5,2.8l-14.1,38.4l-6.7-2.5l-6.6-29.1l-8.6,23.5l-7.5-2.8l14.1-38.4
				L289,651.4z"/>
			<path class="st4" d="M253.2,653.4l7.5-15l7.1,3.5l-7.5,15l0.2,27.1l-7.8-3.9l0.5-18.2l-14.1,11.4l-7.8-3.9L253.2,653.4z"/>
		</g>
		<g>
			<circle class="st0" cx="103.1" cy="400" r="14.9"/>
			<circle class="st0" cx="693.9" cy="400" r="14.9"/>
		</g>
		<path class="st5" d="M573.4,461.4c-0.4-4.4-0.8-8.5-0.5-11.6c2.5-27.4-5.5-52.1-23.1-71.4c-19.9-21.9-51.3-35-84-35
			c-45.5,0-83.6,23.8-102,63.8c0,0.1-0.1,0.2-0.1,0.3c-4.2-15.5-8.5-26.3-11.9-35c-5.8-14.6-8.9-22.5-6.4-39.7
			c4.5-0.5,8.7-2.4,12-5.5c0.6,0,1.2,0.1,1.8,0.1c6.2,0,11.5-2.3,15.4-6.5l0.5,0c7.7,0,14.3-3.3,18.6-9.2c10.6-0.9,18-7.3,19.5-17.2
			c2-13.3-2.7-50.4-12.7-62.1c-4-4.6-8.4-5.6-11.3-5.6c-17,0-43.5,3.9-66.1,9.7c-41.1,10.6-47.5,21.3-48.5,29.5
			c-4.2,33.7-10.4,63.7-15.8,90.2c-7.7,37.5-13.8,67.2-10.9,90.5c1.2,9.1,3.4,16.9,5.7,24.4c2.8,9.4,5.6,19.1,6.6,32.4
			c1.3,18.5,21.3,29.1,54.8,29.1c13.1,0,26.5-1.7,37.5-4.8c13.5,6.5,57.9,25.8,105.4,25.8c16.3,0,31.5-2.3,45.2-6.9
			C573,523.2,576.2,491.7,573.4,461.4 M258.6,445.3c-4.7-37.2,16.7-97.3,26.7-178c1.7-13.7,63.8-27.9,98-29.5
			c-1.4,1.1-2.4,2.6-2.5,4.1c4.1-1.9,10.2-2.5,13.2,3.7c0.2-1,0.2-1.9,0.2-2.8c1.6,3.1,3,7.3,4.2,12c1.5,6.9,2.4,13.9,2.4,21
			c0,4.9,1.1,22.4-7,20.1c-5-1.4-5.1-6-6.5-10.7c-2.2-7.4-6-15.9-5.6-23.8c-1.9,7.7,0.4,17,1.2,24.8c0.5,4.5,3.6,16.8-1.9,18.5
			c-3.1,0.9-6.6-1.2-9.2-2.8c-1-0.6-1.7-5.1-2-6.3c-2.2-7.7-6.1-16.5-5.6-24.5c-1.9,7.3,0,16,0.6,23.4c0.4,4.6,2.7,14.6-2.5,16.9
			c-5.9,3.1-6.8-4.4-7.9-8.3c-2-7.3-5.3-15.2-5.2-22.8c-2.1,9.3,0.4,20.1,0.8,29.7c0.2,4.7-9.7,9-13.4,6c-5.8-4.6-6.8-15.5-7.4-22.6
			c1.7,2.4,4.2,5.4,7.4,5.1c-2.7-3.1-3.8-8.3-5.6-12c-1.6-3.1-5-10.3-8.9-10.4c0.6,1.3,3.9,10.3,3.4,11.2c-1.6,3-3.2,6-4.9,8.8
			c-1.5,2.4-5.9,10-9.4,7.7c-3.8-2.5-6.2-13.6-6.2-13.6s0.1,13.8,5.1,17c4.7,3,10-1.8,13.1-5.2c0.6,6.6,2.4,14.3,6.4,19.3
			c-11.7,51.8,9.8,51.3,24.3,120.5c0,0,9.5-14.1,17.9-32.2c18.2-39.6,56.2-57.2,92.9-57.2c36.3,0,75.2,18.6,89.4,50.7
			c4.7,10.6,5.8,23.3,4.6,37.2c-2.1,22.7,20.4,59.7-63.3,87.5c-66.4,22.1-148.1-20.2-148.1-20.2c-22.4,7.3-74.8,10.5-75.9-5
			C269.1,477.3,261,464.4,258.6,445.3"/>
		<path class="st2" d="M573.4,456.2c-0.4-4.4-0.8-8.5-0.5-11.6c2.5-27.4-5.5-52.1-23.1-71.4c-19.9-21.9-51.3-35-84-35
			c-45.5,0-83.6,23.8-102,63.8c0,0.1-0.1,0.2-0.1,0.3c-4.2-15.5-8.5-26.3-11.9-35c-5.8-14.6-8.9-22.5-6.4-39.7
			c4.5-0.5,8.7-2.4,12-5.5c0.6,0,1.2,0.1,1.8,0.1c6.2,0,11.5-2.3,15.4-6.5l0.5,0c7.7,0,14.3-3.3,18.6-9.2c10.6-0.9,18-7.3,19.5-17.2
			c2-13.3-2.7-50.4-12.7-62.1c-4-4.6-8.4-5.6-11.3-5.6c-17,0-43.5,3.9-66.1,9.7c-41.1,10.6-47.5,21.3-48.5,29.5
			c-4.2,33.7-10.4,63.7-15.8,90.2c-7.7,37.5-13.8,67.2-10.9,90.5c1.2,9.1,3.4,16.9,5.7,24.4c2.8,9.4,5.6,19.1,6.6,32.4
			c1.3,18.5,21.3,29.1,54.8,29.1c13.1,0,26.5-1.7,37.5-4.8c13.5,6.5,57.9,25.8,105.4,25.8c16.3,0,31.5-2.3,45.2-6.9
			C573,518.1,576.2,486.5,573.4,456.2 M258.6,440.1c-4.7-37.2,16.7-97.3,26.7-178c1.7-13.7,63.8-27.9,98-29.5
			c-1.4,1.1-2.4,2.6-2.5,4.1c4.1-1.9,10.2-2.5,13.2,3.7c0.2-1,0.2-1.9,0.2-2.8c1.6,3.1,3,7.3,4.2,12c1.5,6.9,2.4,13.9,2.4,21
			c0,4.9,1.1,22.4-7,20.1c-5-1.4-5.1-6-6.5-10.7c-2.2-7.4-6-15.9-5.6-23.8c-1.9,7.7,0.4,17,1.2,24.8c0.5,4.5,3.6,16.8-1.9,18.5
			c-3.1,0.9-6.6-1.2-9.2-2.8c-1-0.6-1.7-5.1-2-6.3c-2.2-7.7-6.1-16.5-5.6-24.5c-1.9,7.3,0,16,0.6,23.4c0.4,4.6,2.7,14.6-2.5,16.9
			c-5.9,3.1-6.8-4.4-7.9-8.3c-2-7.3-5.3-15.2-5.2-22.8c-2.1,9.3,0.4,20.1,0.8,29.7c0.2,4.7-9.7,9-13.4,6c-5.8-4.6-6.8-15.5-7.4-22.6
			c1.7,2.4,4.2,5.4,7.4,5.1c-2.7-3.1-3.8-8.3-5.6-12c-1.6-3.1-5-10.3-8.9-10.4c0.6,1.3,3.9,10.3,3.4,11.2c-1.6,3-3.2,6-4.9,8.8
			c-1.5,2.4-5.9,10-9.4,7.7c-3.8-2.5-6.2-13.6-6.2-13.6s0.1,13.8,5.1,17c4.7,3,10-1.8,13.1-5.2c0.6,6.6,2.4,14.3,6.4,19.3
			c-11.7,51.8,9.8,51.3,24.3,120.5c0,0,9.5-14.1,17.9-32.2c18.2-39.6,56.2-57.2,92.9-57.2c36.3,0,75.2,18.6,89.4,50.7
			c4.7,10.6,5.8,23.3,4.6,37.2c-2.1,22.7,20.4,59.7-63.3,87.5c-66.4,22.1-148.1-20.2-148.1-20.2c-22.4,7.3-74.8,10.5-75.9-5
			C269.1,472.2,261,459.2,258.6,440.1"/>
	</g>
	<path class="st6" d="M400.2,799.6c102.4,0,204.9-39,282.8-117c156-156,156-409.7,0-565.7C605,39,502.6,0,400.2,0V799.6z"/>
</g>
</svg>
